<?xml version="1.0" encoding="UTF-8"?>
<svg width="200px" height="67px" viewBox="0 0 200 67" version="1.1" xmlns="http://www.w3.org/2000/svg" xmlns:xlink="http://www.w3.org/1999/xlink">
    <!-- Generator: Sketch 46 (44423) - http://www.bohemiancoding.com/sketch -->
    <title>Logo_Horizontal_addtitle</title>
    <desc>Created with Sketch.</desc>
    <defs>
        <polygon id="path-1" points="20.074048 27.3358815 20.074048 0.108942172 0.0188434415 0.108942172 0.0188434415 27.3358815 20.074048 27.3358815"></polygon>
    </defs>
    <g id="Symbols" stroke="none" stroke-width="1" fill="none" fill-rule="evenodd">
        <g id="Logo_Horizontal_addtitle">
            <g id="Logo3">
                <g id="Group-2">
                    <polygon id="Fill-1" fill="#005596" points="32.0081382 5.64174894e-05 24.6412835 12.7595769 29.4734415 12.7595769 -4.23131169e-05 63.7980818 19.568787 63.7980818 26.9371932 51.0365867 22.1070099 51.0365867 44.2065867 12.7595769 36.8362059 5.64174894e-05"></polygon>
                    <polygon id="Fill-2" fill="#7DA6D7" points="73.6745416 63.79811 24.4852609 63.79811 31.850141 51.036615 51.5656559 51.036615 49.1136107 46.7888011 29.4734133 46.7844288 46.6601551 17.007842 56.4594499 34.0610155 51.5523977 34.0610155 49.0948519 38.3119323 58.9601551 38.3119323"></polygon>
                </g>
                <g id="Group" transform="translate(80.000000, 17.000000)">
                    <path d="M0.181156559,24.6024542 L12.4207898,7.27114245 C13.5368688,5.73757405 14.4908886,4.81359661 14.4908886,4.81359661 L14.4908886,4.73827927 C14.4908886,4.73827927 13.6817207,4.81359661 12.4207898,4.81359661 L5.82234133,4.81359661 C5.29145275,4.81359661 4.9848237,5.1183921 4.9848237,5.66028209 L4.9848237,7.30499295 L0.416417489,7.30499295 L0.416417489,3.16535966 C0.416417489,1.36098731 1.18214386,0.553653032 3.02248237,0.553653032 L20.6982228,0.553653032 L20.6982228,3.69765867 L8.4677574,21.0732581 C7.35746121,22.6416643 6.39977433,23.5248801 6.39977433,23.5248801 L6.39977433,23.6035825 C6.39977433,23.6035825 7.2071086,23.5248801 8.4677574,23.5248801 L15.9131735,23.5248801 C16.4440621,23.5248801 16.7525247,23.2174048 16.7525247,22.6835543 L16.7525247,21.0289704 L21.2774894,21.0289704 L21.2774894,25.1769252 C21.2774894,27.0130324 20.5119041,27.7805924 18.6718477,27.7805924 L0.181156559,27.7805924 L0.181156559,24.6024542 Z" id="Fill-3" fill="#005594"></path>
                    <path d="M26.1415938,20.496897 C26.1415938,20.496897 28.9451199,23.7167842 32.7351058,23.7167842 C34.8116925,23.7167842 36.6507616,22.6046544 36.6507616,20.496897 C36.6507616,15.8530324 23.8442736,16.238787 23.8442736,7.76755994 C23.8442736,3.351622 27.6830606,0.0926657264 32.9382087,0.0926657264 C36.1198731,0.0926657264 41.0233992,1.59040903 41.0233992,5.46473907 L41.0233992,7.9954866 L36.5018195,7.9954866 L36.5018195,6.76868829 C36.5018195,5.50592384 34.7009732,4.65937941 32.8963188,4.65937941 C30.597165,4.65937941 28.9074612,5.84866008 28.9074612,7.57390691 C28.9074612,12.2121298 41.7177574,11.2956276 41.7177574,20.2242595 C41.7177574,24.5667137 38.3798166,28.2437236 32.6686742,28.2437236 C26.6496333,28.2437236 23.309859,24.0249647 23.309859,24.0249647 L26.1415938,20.496897 Z" id="Fill-5" fill="#005594"></path>
                    <path d="M46.3934979,12.0992807 L43.8631735,12.0992807 L43.8631735,8.22706629 L46.5042172,8.22706629 L46.5042172,2.89801128 L51.264866,2.89801128 L51.264866,8.22706629 L55.7149365,8.22706629 L55.7149365,12.0992807 L51.264866,12.0992807 L51.264866,19.9980113 C51.264866,23.2173343 53.7867278,23.6768547 55.1373625,23.6768547 C55.671354,23.6768547 56.0157828,23.603512 56.0157828,23.603512 L56.0157828,27.8637377 C56.0157828,27.8637377 55.4030889,27.9767137 54.5273484,27.9767137 C51.806756,27.9767137 46.3934979,27.1674048 46.3934979,20.6094358 L46.3934979,12.0992807 Z" id="Fill-7" fill="#005594"></path>
                    <path d="M66.3347955,24.4462623 C68.9371932,24.4462623 70.7824683,21.6846262 70.7824683,19.3078984 L70.7824683,18.8454161 L69.9422708,18.8454161 C67.4130748,18.8454161 63.3806347,19.1929478 63.3806347,21.9133992 C63.3806347,23.2173484 64.3401551,24.4462623 66.3347955,24.4462623 M70.0850071,15.5145275 L70.707433,15.5145275 L70.707433,15.3600846 C70.707433,12.5583921 69.5917772,11.5235543 67.1006629,11.5235543 C66.2199859,11.5235543 64.4909309,11.7551481 64.4909309,12.8252468 L64.4909309,13.8643159 L59.9658251,13.8643159 L59.9658251,11.7926657 C59.9658251,8.15176305 65.1065867,7.76755994 67.1400141,7.76755994 C73.652426,7.76755994 75.5788011,11.1812412 75.5788011,15.5502116 L75.5788011,22.8359661 C75.5788011,23.3723554 75.8819041,23.6768688 76.4147673,23.6768688 L77.9555289,23.6768688 L77.9555289,27.780677 L73.584725,27.780677 C71.778237,27.780677 71.091213,26.7834979 71.091213,25.6332863 C71.091213,25.1369535 71.1256276,24.7888575 71.1256276,24.7888575 L71.0542595,24.7888575 C71.0542595,24.7888575 69.5486178,28.2437236 65.1457969,28.2437236 C61.6546827,28.2437236 58.4735825,26.0571227 58.4735825,22.1434415 C58.4735825,16.0052186 66.9024965,15.5145275 70.0850071,15.5145275" id="Fill-9" fill="#005594"></path>
                    <path d="M90.609464,7.76755994 C93.1403526,7.76755994 97.7055148,8.79901269 97.7055148,12.1764457 L97.7055148,14.4795487 L93.4073484,14.4795487 L93.4073484,13.3973202 C93.4073484,12.3308886 91.7984626,11.867701 90.609464,11.867701 C87.2301975,11.867701 84.815952,14.4380818 84.815952,17.9658674 C84.815952,21.9533145 87.7720874,23.9874471 90.9101693,23.9874471 C94.2462764,23.9874471 96.7017066,21.3413258 96.7017066,21.3413258 L98.7364034,24.7169252 C98.7364034,24.7169252 95.8214528,28.2437236 90.493244,28.2437236 C84.0483921,28.2437236 79.9052327,23.6768688 79.9052327,18.0039492 C79.9052327,12.4812412 83.9019887,7.76755994 90.609464,7.76755994" id="Fill-11" fill="#005594"></path>
                    <g id="Group-15" transform="translate(99.830748, 0.444711)">
                        <mask id="mask-2" fill="white">
                            <use xlink:href="#path-1"></use>
                        </mask>
                        <g id="Clip-14"></g>
                        <path d="M2.39430183,5.09328632 C2.39430183,4.51937941 2.08315938,4.25788434 1.55100141,4.25788434 L0.0188434415,4.25788434 L0.0188434415,0.108942172 L4.6590409,0.108942172 C6.46369535,0.108942172 7.26327221,0.532496474 7.26327221,2.33672779 L7.26327221,14.6841185 L8.72603667,14.6841185 C9.34098731,14.6841185 10.1405642,14.572835 10.5660931,13.9522426 L14.5505783,7.78228491 L19.9621439,7.78228491 L15.0139069,15.1392666 C14.1742736,16.3722708 13.5480395,16.6784767 13.5480395,16.6784767 L13.5480395,16.7559097 C13.5480395,16.7559097 14.2443724,17.0229055 14.9344993,18.2838364 L17.1610155,22.508237 C17.4660931,23.0801693 17.8535402,23.2322144 18.7751199,23.2322144 L20.0741326,23.2322144 L20.0741326,27.3358815 L16.4703244,27.3358815 C14.8219464,27.3358815 14.1742736,27.0707193 13.39811,25.6499859 L10.1405642,19.5121862 C9.76228491,18.821354 8.95100141,18.78567 8.33844852,18.78567 L7.26327221,18.78567 L7.26327221,27.3358815 L2.39430183,27.3358815 L2.39430183,5.09328632 Z" id="Fill-13" fill="#005594" mask="url(#mask-2)"></path>
                    </g>
                </g>
                <g id="Group-3" transform="translate(89.000000, 53.000000)" fill="#7DA6D7">
                    <path d="M4.44620383,0.0223434915 L4.44620383,2.42376559 L0.0212867047,2.42376559 L0.0212867047,2.8021959 L4.44620383,2.8021959 L4.44620383,3.64561238 L0.000150969537,8.90287488 L0.611577594,8.90287488 L4.69882619,4.10959209 L4.95144855,3.81469826 L4.95144855,2.8021959 L9.41914038,2.8021959 L9.41914038,2.42376559 L4.95144855,2.42376559 L4.95144855,0.0223434915 L4.44620383,0.0223434915 Z M4.69882619,4.10959209 L8.76594551,8.90287488 L9.37636567,8.90287488 L5.30974958,4.10959209 L4.69882619,4.10959209 Z" id="Fill-7"></path>
                    <path d="M19.1448999,0.000603878148 L18.6814234,0.906924331 L13.5821757,0.906924331 L13.5821757,1.28585787 L16.5326237,1.28585787 L16.2372266,2.38139348 L13.9198442,2.38139348 L13.9198442,7.43836973 L20.3249784,7.43836973 L20.3249784,2.38139348 L16.7641103,2.38139348 L17.0590041,1.28585787 L20.6621437,1.28585787 L20.6621437,0.906924331 L19.2294428,0.906924331 L19.6722868,0.000603878148 L19.1448999,0.000603878148 Z M14.4250889,3.89813409 L19.8192305,3.89813409 L19.8192305,2.76083024 L14.4250889,2.76083024 L14.4250889,3.89813409 Z M14.4250889,5.45865587 L19.8192305,5.45865587 L19.8192305,4.27807409 L14.4250889,4.27807409 L14.4250889,5.45865587 Z M14.4250889,7.05943619 L19.8192305,7.05943619 L19.8192305,5.83758941 L14.4250889,5.83758941 L14.4250889,7.05943619 Z M14.5936716,0.000603878148 L14.9308369,0.738844914 L15.4365848,0.738844914 L15.0994195,0.000603878148 L14.5936716,0.000603878148 Z M11.6859983,0.190322263 L12.8021664,2.33962524 L13.3295533,2.33962524 L12.1917462,0.190322263 L11.6859983,0.190322263 Z M11.3065615,3.09799554 L11.3065615,3.47743231 L12.3180574,3.47743231 L12.3180574,7.01666149 L11.2225218,8.90277424 L11.7705412,8.90277424 L12.5923187,7.54354517 L13.6667186,8.8182313 L20.6198723,8.8182313 L20.8307264,8.43980099 L13.9616124,8.43980099 L12.8238054,7.10120443 L12.8238054,3.09799554 L11.3065615,3.09799554 Z" id="Fill-8"></path>
                    <path d="M27.6493662,4.32029524 L27.3962406,4.32029524 L27.1436182,4.32029524 L23.2667205,4.32029524 L25.6258711,0.906874008 L22.9713234,0.906874008 L22.9713234,0.527437239 L31.8211577,0.527437239 L31.8211577,0.906874008 L26.1738906,0.906874008 L24.088498,3.94035524 L30.7673903,3.94035524 L29.4615038,2.12872079 L30.0085168,2.12872079 L31.6737108,4.32029524 L27.6493662,4.32029524 Z M27.6493662,4.48938112 L27.6493662,6.0483932 L31.3576812,6.0483932 L31.3576812,6.42732674 L27.6493662,6.42732674 L27.6493662,8.35520773 L32.0320118,8.35520773 L32.0320118,8.73414126 L22.7609726,8.73414126 L22.7609726,8.35520773 L27.1436182,8.35520773 L27.1436182,6.42732674 L23.4353032,6.42732674 L23.4353032,6.0483932 L27.1436182,6.0483932 L27.1436182,4.48938112 L27.3962406,4.48938112 L27.6493662,4.48938112 Z" id="Fill-9"></path>
                    <path d="M39.651243,0.0218905829 L38.5552042,2.04488238 L39.0604489,2.04488238 L39.6935145,0.907075301 L40.5364278,0.907075301 L41.1891194,2.08715385 L41.6953706,2.08715385 L41.0421757,0.907075301 L43.2327437,0.907075301 L43.2327437,0.526632068 L39.9038654,0.526632068 L40.156991,0.0218905829 L39.651243,0.0218905829 Z M35.4789483,0.0218905829 L34.21483,2.06551488 L34.7200747,2.06551488 L35.500084,0.907075301 L36.3218615,0.907075301 L36.9121524,2.00261091 L37.4601718,2.00261091 L36.8698809,0.907075301 L38.8083298,0.907075301 L38.8083298,0.526632068 L35.6898024,0.526632068 L35.9846962,0.0218905829 L35.4789483,0.0218905829 Z M35.204687,2.00261091 L36.0481034,3.56111976 L36.5744839,3.56111976 L35.7109381,2.00261091 L35.204687,2.00261091 Z M37.3333574,2.55012709 L37.3333574,2.92956386 L42.5166449,2.92956386 L42.5166449,8.4817202 L40.7467787,8.4817202 L40.9576328,8.86115697 L43.022896,8.86115697 L43.022896,2.55012709 L37.3333574,2.55012709 Z M34.4674524,8.90342844 L34.9726971,8.90342844 L34.9726971,3.18218622 L34.4674524,3.18218622 L34.4674524,8.90342844 Z M36.5327156,8.0907091 L40.8313216,8.0907091 L40.8313216,4.04522874 L36.5327156,4.04522874 L36.5327156,8.0907091 Z M37.0384636,5.81660464 L40.3255736,5.81660464 L40.3255736,4.42516874 L37.0384636,4.42516874 L37.0384636,5.81660464 Z M37.0384636,7.71278202 L40.3255736,7.71278202 L40.3255736,6.23780965 L37.0384636,6.23780965 L37.0384636,7.71278202 Z" id="Fill-10"></path>
                    <path d="M58.0782828,0.0223434915 L58.0782828,1.89738514 L56.5182642,1.89738514 L56.5182642,2.27631868 L57.6565745,2.27631868 L56.5610389,6.84868272 L57.0667869,6.84868272 L58.0782828,2.31758368 L58.0782828,8.90287488 L58.5835275,8.90287488 L58.5835275,2.27631868 L60.0584999,2.27631868 L60.0584999,1.89738514 L58.5835275,1.89738514 L58.5835275,0.0223434915 L58.0782828,0.0223434915 Z M60.1636753,0.527084976 L60.1636753,0.907024978 L60.6482875,0.907024978 L60.6482875,6.25839183 L59.8476458,8.90287488 L60.3951619,8.90287488 L61.1545387,6.34293477 L61.1545387,0.907024978 L64.5885924,0.907024978 L63.282706,3.64561238 L65.0938372,3.64561238 L63.4930568,5.87945829 L62.1448989,4.23590327 L61.5757437,4.23590327 L63.1770273,6.25839183 L61.2174427,8.90287488 L61.7654621,8.90287488 L63.4930568,6.61669286 L65.3686017,8.90287488 L65.9795251,8.90287488 L63.7879507,6.25839183 L65.768671,3.54043693 L65.768671,3.26617561 L63.999308,3.26617561 L65.3051945,0.527084976 L60.1636753,0.527084976 Z M58.625799,3.18163267 L59.5527519,5.6484749 L60.0791324,5.6484749 L59.1109144,3.18163267 L58.625799,3.18163267 Z" id="Fill-11"></path>
                    <path d="M73.3884055,0.000150969537 L73.3884055,0.631706866 L70.3116463,0.631706866 L70.3116463,1.01164687 L73.3884055,1.01164687 L73.3884055,2.27626835 L70.4379575,2.27626835 L70.4379575,5.31025281 L72.544989,5.31025281 L70.1430636,7.33324461 L70.1430636,7.86012829 L72.9244257,5.5633784 L72.9244257,5.31025281 L73.3884055,5.31025281 L73.3884055,7.83848933 L73.8941534,7.83848933 L73.8941534,5.31025281 L74.3999014,5.31025281 L74.3999014,5.5633784 L77.138992,7.81785682 L77.138992,7.2492049 L74.7576992,5.31025281 L76.9070021,5.31025281 L76.9070021,2.27626835 L73.8941534,2.27626835 L73.8941534,1.01164687 L77.054449,1.01164687 L77.054449,0.631706866 L73.8941534,0.631706866 L73.8941534,0.000150969537 L73.3884055,0.000150969537 Z M73.8941534,4.93081604 L76.4012542,4.93081604 L76.4012542,2.65469866 L73.8941534,2.65469866 L73.8941534,4.93081604 Z M70.9442087,4.93081604 L73.3879022,4.93081604 L73.3879022,2.65469866 L70.9442087,2.65469866 L70.9442087,4.93081604 Z M68.1623433,0.0841906784 L69.427468,2.27626835 L69.9749842,2.27626835 L68.689227,0.0841906784 L68.1623433,0.0841906784 Z M67.6570986,3.28776425 L67.6570986,3.66619456 L68.7531374,3.66619456 L68.7531374,7.20693343 L67.7411383,8.88118559 L68.2468863,8.88118559 L69.0057598,7.64877094 L70.1017986,8.83891412 L77.0967205,8.83891412 L77.3498461,8.46048382 L70.3539178,8.46048382 L69.2166139,7.20693343 L69.2166139,3.28776425 L67.6570986,3.28776425 Z" id="Fill-12"></path>
                    <path d="M81.5126801,0.0223434915 L81.7023985,0.549227175 L79.3638804,0.549227175 L79.3638804,0.927154249 L84.3775787,0.927154249 L84.3775787,0.549227175 L82.2081465,0.549227175 L82.0184281,0.0223434915 L81.5126801,0.0223434915 Z M85.2003627,0.442542036 L85.2003627,8.90287488 L85.7056074,8.90287488 L85.7056074,0.821978805 L87.9183176,0.821978805 L86.7805105,3.98277768 L87.3285299,3.98277768 L88.5921449,0.442542036 L85.2003627,0.442542036 Z M83.4516322,1.28595852 L82.7350301,3.85596327 L79.1530263,3.85596327 L79.1530263,4.23590327 L84.5255288,4.23590327 L84.5255288,3.85596327 L83.2619138,3.85596327 L83.9362444,1.28595852 L83.4516322,1.28595852 Z M79.7010457,1.28595852 L80.3331048,3.64611561 L80.8388528,3.64611561 L80.2062904,1.28595852 L79.7010457,1.28595852 Z M87.8342779,3.98277768 L87.8342779,8.19784715 L86.401577,8.19784715 L86.6119278,8.56621282 L88.3400258,8.56621282 L88.3400258,3.98277768 L87.8342779,3.98277768 Z M79.4685526,8.81833194 L84.2724033,8.81833194 L84.2724033,5.24689593 L79.4685526,5.24689593 L79.4685526,8.81833194 Z M79.9743005,8.43939841 L83.7676618,8.43939841 L83.7676618,5.6263327 L79.9743005,5.6263327 L79.9743005,8.43939841 Z" id="Fill-13"></path>
                    <path d="M91.1765421,2.33937362 L99.1411916,2.33937362 L99.1411916,0.33701433 L91.1765421,0.33701433 L91.1765421,2.33937362 Z M96.6542201,1.95993685 L98.6354437,1.95993685 L98.6354437,0.716451099 L96.6542201,0.716451099 L96.6542201,1.95993685 Z M94.2522948,1.95993685 L96.1484722,1.95993685 L96.1484722,0.716451099 L94.2522948,0.716451099 L94.2522948,1.95993685 Z M91.6817868,1.95993685 L93.7470501,1.95993685 L93.7470501,0.716451099 L91.6817868,0.716451099 L91.6817868,1.95993685 Z M94.9271286,2.67704215 L94.9271286,3.32923055 L91.4286612,3.32923055 L91.4286612,3.70866732 L94.9271286,3.70866732 L94.9271286,4.5299416 L90.7971053,4.5299416 L90.7971053,4.9098816 L93.7470501,4.9098816 L90.6707942,6.38485398 L90.6707942,6.82719472 L91.7240583,6.38485398 L91.7240583,8.73393997 L99.0148805,8.73393997 L99.0148805,5.9847847 L92.5247001,5.9847847 L94.758546,4.9098816 L99.815019,4.9098816 L99.815019,4.5299416 L96.7805313,4.5299416 L99.6041649,3.24569407 L99.6041649,2.82448907 L95.8324426,4.5299416 L95.4323734,4.5299416 L95.4323734,3.70866732 L97.3501897,3.70866732 L97.3501897,3.32923055 L95.4323734,3.32923055 L95.4323734,2.67704215 L94.9271286,2.67704215 Z M92.2298062,7.18650222 L98.5096358,7.18650222 L98.5096358,6.36321501 L92.2298062,6.36321501 L92.2298062,7.18650222 Z M92.2298062,8.3545032 L98.5096358,8.3545032 L98.5096358,7.56442929 L92.2298062,7.56442929 L92.2298062,8.3545032 Z" id="Fill-14"></path>
                    <circle id="Oval" cx="50" cy="5" r="1"></circle>
                </g>
            </g>
        </g>
    </g>
</svg>